<?xml version="1.0" encoding="utf-8"?>
<!-- Svg Vector Icons : http://www.sfont.cn -->
<!DOCTYPE svg PUBLIC "-//W3C//DTD SVG 1.1//EN" "http://www.w3.org/Graphics/SVG/1.1/DTD/svg11.dtd">
<svg version="1.1" xmlns="http://www.w3.org/2000/svg" xmlns:xlink="http://www.w3.org/1999/xlink" x="0px" y="0px" viewBox="0 0 1000 1000" enable-background="new 0 0 1000 1000" xml:space="preserve">
<metadata> Svg Vector Icons : http://www.sfont.cn </metadata>
<g><path d="M598.9,756.7c-4.2-27-10.2-52.9-18-77.8c-7.8-24.9-17.1-49.6-27.9-74.2h75.5c11.4,27,21.1,53,29.2,78.2c8.1,25.2,15.1,49.8,21.1,73.7H598.9L598.9,756.7z M10,971.6c58.7-127.7,98-269.4,117.8-425.3h71.9c-6,79.1-17.2,153.9-33.7,224.3c-16.5,70.4-39.1,137.4-67.9,200.9H10L10,971.6z M110.7,247.8c-8.4-34.2-19.6-68.2-33.7-102C62.9,111.9,46.3,77.3,27.1,41.9h80c30.6,50.3,58.4,119,83.6,205.9H110.7L110.7,247.8z M115.2,293.7c30,49.1,58.1,118.1,84.5,206.8h-80c-17.4-68.9-45.6-137.9-84.5-206.8H115.2z M418.2,163.3c-38.4,41.4-100.1,75.2-185.2,101.6v-51.2c89.9-41.4,150.1-105.8,180.7-193.3h88.1c-5.4,17.4-11.5,33.3-18.4,47.7c-6.9,14.4-14.5,27.9-22.9,40.5h508.9v54.8H418.2L418.2,163.3z M893.8,521.1H990v58.4h-96.2v197.8h66.5v59.3h-66.5v20.7c0,81.5-46.5,122.3-139.4,122.3H644.8v-50.3h97.1c48,0,71.9-24,71.9-71.9v-20.7H460.4c-95.3,3-141.8-40.5-139.4-130.4V579.6h-80v-58.4h80V268.5h572.7V521.1z M813.8,579.6H401.1v114.2c-3,59.3,25.2,87.2,84.5,83.6h328.2V579.6z M813.8,323.3H401.1v197.8h412.7V323.3z M590.8,500.4c-1.8-17.4-6.1-38.2-13-62.5c-6.9-24.3-16.6-52.6-29.2-85h71c25.2,42.6,42.3,91.7,51.2,147.4H590.8L590.8,500.4z"/></g>
</svg>